<svg width="39" height="40" viewBox="0 0 39 40" fill="none" xmlns="http://www.w3.org/2000/svg">
<path d="M24.7262 0.000684063C24.9677 3.12724 24.656 5.74116 24.0102 7.94374C22.201 14.1148 13.8689 13.4637 7.61899 11.9491C12.0622 10.7378 14.3102 3.67978 14.8788 0.302181L24.7262 0.000684063Z" fill="#3551F2"/>
<path d="M38.6915 26.1363C35.5571 26.2309 32.9607 25.7969 30.7908 25.0486C24.7114 22.9518 25.7526 14.6594 27.5588 8.48746C28.5603 12.9826 35.5051 15.5592 38.8523 16.2857L38.6915 26.1363Z" fill="#3551F2"/>
<path d="M13.7422 39.4533C13.6007 36.3206 13.9957 33.718 14.7114 31.5372C16.7168 25.427 25.0239 26.3438 31.2222 28.0573C26.7426 29.1261 24.2704 36.1087 23.5942 39.4664L13.7422 39.4533Z" fill="#3551F2"/>
<path d="M0.00637336 14.1099C3.136 13.9121 5.74531 14.2603 7.93865 14.9367C14.0838 16.832 13.3164 25.1542 11.7146 31.3823C10.5655 26.9227 3.53957 24.5762 0.170246 23.9604L0.00637336 14.1099Z" fill="#3551F2"/>
<path d="M15.7792 19.7183C15.7792 19.0249 15.9292 18.4083 16.2292 17.8683C16.5292 17.3216 16.9459 16.8983 17.4792 16.5983C18.0192 16.2916 18.6292 16.1383 19.3092 16.1383C20.1426 16.1383 20.8559 16.3583 21.4492 16.7983C22.0426 17.2383 22.4392 17.8383 22.6392 18.5983H20.7592C20.6192 18.3049 20.4192 18.0816 20.1592 17.9283C19.9059 17.7749 19.6159 17.6983 19.2892 17.6983C18.7626 17.6983 18.3359 17.8816 18.0092 18.2483C17.6826 18.6149 17.5192 19.1049 17.5192 19.7183C17.5192 20.3316 17.6826 20.8216 18.0092 21.1883C18.3359 21.5549 18.7626 21.7383 19.2892 21.7383C19.6159 21.7383 19.9059 21.6616 20.1592 21.5083C20.4192 21.3549 20.6192 21.1316 20.7592 20.8383H22.6392C22.4392 21.5983 22.0426 22.1983 21.4492 22.6383C20.8559 23.0716 20.1426 23.2883 19.3092 23.2883C18.6292 23.2883 18.0192 23.1383 17.4792 22.8383C16.9459 22.5316 16.5292 22.1083 16.2292 21.5683C15.9292 21.0283 15.7792 20.4116 15.7792 19.7183Z" fill="#3551F2"/>
</svg>
