<svg width="38" height="37" viewBox="0 0 38 37" fill="none" xmlns="http://www.w3.org/2000/svg">
<path d="M19.013 0.207031C29.1385 0.207031 37.3464 8.41487 37.3464 18.5404C37.3464 28.6659 29.1385 36.8737 19.013 36.8737C8.88752 36.8737 0.679688 28.6659 0.679688 18.5404C0.679688 8.41487 8.88752 0.207031 19.013 0.207031ZM22.6797 21.107L19.8124 23.4005C19.7117 23.4811 19.6292 23.582 19.5702 23.6966C19.5112 23.8112 19.477 23.937 19.4699 24.0657C19.4628 24.1945 19.483 24.3232 19.529 24.4436C19.5751 24.5641 19.646 24.6734 19.7372 24.7645L22.0087 27.036C22.4485 27.4764 22.7691 28.0215 22.94 28.62L23.2609 29.7439C23.3939 30.2154 23.6302 30.6514 23.9527 31.0202C24.2752 31.389 24.6758 31.6813 25.1254 31.876C26.8796 31.0711 28.4577 29.9279 29.7692 28.5119L29.3402 25.0707C29.2651 24.472 29.0435 23.9011 28.6949 23.4086C28.3463 22.9161 27.8815 22.5172 27.3419 22.2474L24.6469 20.898C24.3333 20.7411 23.9813 20.6774 23.6327 20.7144C23.284 20.7515 22.9533 20.8877 22.6797 21.107ZM19.013 3.8737C16.7692 3.8722 14.555 4.38621 12.5413 5.37605C10.5276 6.3659 8.76819 7.80513 7.39885 9.5827L7.09635 9.98786V13.077C7.09612 14.1963 7.43737 15.289 8.07453 16.2092C8.71169 17.1294 9.61443 17.8333 10.6622 18.2269L10.9885 18.3369L13.3535 19.061C15.8707 19.831 18.3219 17.7832 18.078 15.2184L18.0432 14.9525L17.7224 13.0294C17.6515 12.6034 17.7332 12.166 17.9532 11.7944C18.1733 11.4228 18.5174 11.1407 18.925 10.998L19.123 10.943L20.245 10.6864C20.8816 10.5409 21.4826 10.2693 22.0126 9.88773C22.5425 9.50616 22.9906 9.0223 23.3305 8.46471C23.6704 7.90712 23.8952 7.28709 23.9915 6.64122C24.0879 5.99534 24.0539 5.33671 23.8915 4.7042C22.3241 4.15304 20.6745 3.87221 19.013 3.8737Z" fill="white"/>
</svg>
