<svg width="33" height="34" viewBox="0 0 33 34" fill="none" xmlns="http://www.w3.org/2000/svg">
<path d="M32.6355 6.58698C32.6193 6.32857 32.5169 6.08306 32.3446 5.88979C32.1723 5.69652 31.9401 5.56668 31.6852 5.52106C25.4682 4.40673 22.8522 3.53521 17.2379 1.0088C16.6771 0.799952 16.3295 0.803565 15.7925 1.0088C10.1782 3.5381 7.56222 4.40528 1.34521 5.52106C1.09033 5.56668 0.858145 5.69652 0.685841 5.88979C0.513538 6.08306 0.411091 6.32857 0.394912 6.58698C0.116689 11.0024 0.708545 15.1143 2.1553 18.8107C3.33837 21.8248 5.09094 24.5829 7.31724 26.9341C10.5453 30.3616 14.1247 32.3627 15.9703 33.12C16.3203 33.2628 16.7123 33.2628 17.0623 33.12C19.0134 32.3309 22.4598 30.3869 25.7132 26.9326C27.9393 24.5819 29.6919 21.8243 30.8751 18.8107C32.3219 15.115 32.9137 11.0024 32.6355 6.58698Z" fill="white"/>
</svg>
