<svg width="58" height="50" viewBox="0 0 58 50" fill="none" xmlns="http://www.w3.org/2000/svg">
<path fillRule="evenodd" clipRule="evenodd" d="M53.3111 14.8182C53.1544 14.8089 52.9876 14.8053 52.8106 14.8071H45.8286C40.1103 14.8071 35.2188 19.3088 35.2188 25.1764C35.2188 31.0441 40.1131 35.5457 45.8286 35.5457H52.8106C52.9876 35.5476 53.1554 35.5439 53.3139 35.5347C54.4892 35.4638 55.5986 34.9681 56.4354 34.1399C57.2723 33.3117 57.7795 32.2075 57.8626 31.033C57.8736 30.8671 57.8736 30.6874 57.8736 30.5215V19.8314C57.8736 19.6655 57.8736 19.4857 57.8626 19.3198C57.7795 18.1454 57.2723 17.0412 56.4354 16.213C55.5986 15.3847 54.4864 14.889 53.3111 14.8182ZM45.2175 27.9416C46.6886 27.9416 47.8804 26.7028 47.8804 25.1764C47.8804 23.6501 46.6886 22.4113 45.2175 22.4113C43.7437 22.4113 42.5519 23.6501 42.5519 25.1764C42.5519 26.7028 43.7437 27.9416 45.2175 27.9416Z" fill="white"/>
<path fillRule="evenodd" clipRule="evenodd" d="M52.8072 39.6926C52.9028 39.6887 52.998 39.7075 53.085 39.7473C53.1719 39.7872 53.2483 39.847 53.3078 39.9219C53.3674 39.9968 53.4084 40.0846 53.4276 40.1784C53.4468 40.2721 53.4436 40.369 53.4183 40.4613C52.8653 42.4301 51.9832 44.1113 50.5702 45.5215C48.4991 47.5954 45.875 48.5107 42.6342 48.9475C39.482 49.3706 35.4587 49.3706 30.3763 49.3706H24.5363C19.454 49.3706 15.4279 49.3706 12.2784 48.9475C9.03765 48.5107 6.41352 47.5926 4.34242 45.5243C2.27409 43.4532 1.35606 40.8291 0.919162 37.5883C0.496094 34.436 0.496094 30.4127 0.496094 25.3304V25.0207C0.496094 19.9383 0.496094 15.9123 0.919162 12.76C1.35606 9.51926 2.27409 6.89513 4.34242 4.82403C6.41352 2.7557 9.03765 1.83767 12.2784 1.40077C15.4307 0.980469 19.454 0.980469 24.5363 0.980469H30.3763C35.4587 0.980469 39.4847 0.980469 42.6342 1.40354C45.875 1.84043 48.4991 2.75846 50.5702 4.82679C51.9832 6.24255 52.8653 7.921 53.4183 9.88979C53.4436 9.98205 53.4468 10.079 53.4276 10.1727C53.4084 10.2664 53.3674 10.3543 53.3078 10.4292C53.2483 10.5041 53.1719 10.5639 53.085 10.6037C52.998 10.6436 52.9028 10.6623 52.8072 10.6585H45.828C37.9832 10.6585 31.0704 16.8524 31.0704 25.1755C31.0704 33.4986 37.9832 39.6926 45.828 39.6926H52.8072ZM10.8654 12.0411C10.3154 12.0411 9.78789 12.2596 9.39897 12.6485C9.01004 13.0374 8.79155 13.5649 8.79155 14.1149C8.79155 14.665 9.01004 15.1925 9.39897 15.5814C9.78789 15.9703 10.3154 16.1888 10.8654 16.1888H21.926C22.476 16.1888 23.0035 15.9703 23.3925 15.5814C23.7814 15.1925 23.9999 14.665 23.9999 14.1149C23.9999 13.5649 23.7814 13.0374 23.3925 12.6485C23.0035 12.2596 22.476 12.0411 21.926 12.0411H10.8654Z" fill="white"/>
</svg>
