<svg width="60" height="60" viewBox="0 0 61 61" fill="none" xmlns="http://www.w3.org/2000/svg">
<path d="M45.4762 4.58567C50.0253 7.21207 53.8029 10.9896 56.4293 15.5387C59.0557 20.0878 60.4384 25.248 60.4383 30.5008C60.4383 35.7536 59.0556 40.9139 56.4291 45.4629C53.8026 50.0119 50.025 53.7895 45.4759 56.4158C40.9268 59.0421 35.7664 60.4247 30.5136 60.4247C25.2608 60.4246 20.1005 59.0418 15.5515 56.4153C11.0024 53.7888 7.22492 50.0112 4.5986 45.4621C1.97228 40.913 0.58971 35.7527 0.589844 30.4999L0.604806 29.5303C0.772391 24.3624 2.27622 19.3261 4.96967 14.9124C7.66313 10.4987 11.4543 6.85826 15.9736 4.34593C20.4928 1.8336 25.586 0.535144 30.7565 0.57716C35.927 0.619177 40.9984 2.00023 45.4762 4.58567ZM30.5141 12.5455C29.7204 12.5455 28.9593 12.8607 28.3981 13.4219C27.8369 13.9831 27.5217 14.7442 27.5217 15.5379C25.1407 15.5379 22.8573 16.4837 21.1738 18.1672C19.4902 19.8508 18.5444 22.1342 18.5444 24.5151C18.5444 26.896 19.4902 29.1794 21.1738 30.8629C22.8573 32.5465 25.1407 33.4923 27.5217 33.4923V39.4771C27.0254 39.5046 26.5299 39.4104 26.0783 39.2029C25.6267 38.9953 25.2326 38.6806 24.9302 38.2861L24.7267 37.9839C24.3173 37.3236 23.6672 36.8484 22.9137 36.6589C22.1603 36.4693 21.3627 36.5802 20.6895 36.968C20.0164 37.3559 19.5205 37.9904 19.3067 38.7373C19.0929 39.4842 19.1779 40.285 19.5439 40.9703C20.3076 42.2949 21.3971 43.4025 22.709 44.188C24.0208 44.9736 25.5116 45.411 27.0399 45.4589H27.5217C27.521 46.1923 27.7898 46.9005 28.2769 47.4488C28.764 47.9972 29.4356 48.3475 30.164 48.4333L30.5141 48.4543C31.3077 48.4543 32.0689 48.139 32.6301 47.5778C33.1912 47.0167 33.5065 46.2555 33.5065 45.4619L34.0332 45.4469C36.3661 45.3121 38.5545 44.2729 40.1334 42.5502C41.7122 40.8275 42.5571 38.557 42.4886 36.2212C42.42 33.8855 41.4433 31.6685 39.7661 30.0414C38.0889 28.4142 35.8433 27.5052 33.5065 27.5075V21.5227C34.5778 21.4868 35.5144 21.9416 36.0979 22.7136L36.3014 23.0159C36.7108 23.6761 37.361 24.1513 38.1144 24.3409C38.8679 24.5305 39.6655 24.4196 40.3386 24.0317C41.0118 23.6438 41.5077 23.0094 41.7215 22.2625C41.9353 21.5156 41.8503 20.7148 41.4843 20.0295C40.7209 18.7043 39.6316 17.5961 38.3197 16.81C37.0078 16.0239 35.5169 15.586 33.9883 15.5379H33.5065C33.5065 14.7442 33.1912 13.9831 32.6301 13.4219C32.0689 12.8607 31.3077 12.5455 30.5141 12.5455ZM33.5065 33.4923C34.3002 33.4923 35.0613 33.8075 35.6225 34.3687C36.1837 34.9299 36.4989 35.691 36.4989 36.4847C36.4989 37.2783 36.1837 38.0394 35.6225 38.6006C35.0613 39.1618 34.3002 39.4771 33.5065 39.4771V33.4923ZM27.5217 21.5227V27.5075C26.728 27.5075 25.9669 27.1922 25.4057 26.631C24.8445 26.0698 24.5292 25.3087 24.5292 24.5151C24.5292 23.7214 24.8445 22.9603 25.4057 22.3991C25.9669 21.8379 26.728 21.5227 27.5217 21.5227Z" fill="white"/>
</svg>
