<svg width="64" height="64" viewBox="0 0 64 64" fill="none" xmlns="http://www.w3.org/2000/svg">
<path d="M32.2738 53.7767L41.1812 44.9474L32.2738 36.1181L28.9921 39.3997L32.3519 42.7596C30.8934 42.8117 29.4744 42.5773 28.0951 42.0564C26.7157 41.5355 25.4781 40.7281 24.3821 39.6342C23.3403 38.5924 22.5454 37.3943 21.9974 36.0399C21.4494 34.6856 21.1764 33.3312 21.1785 31.9769C21.1785 31.0913 21.2962 30.2058 21.5317 29.3203C21.7671 28.4347 22.0922 27.5752 22.5068 26.7418L19.0689 23.3038C18.1833 24.6061 17.5322 25.9865 17.1155 27.445C16.6988 28.9035 16.4904 30.3881 16.4904 31.8987C16.4904 33.8782 16.8811 35.8316 17.6624 37.7589C18.4438 39.6862 19.5898 41.4052 21.1004 42.9159C22.611 44.4265 24.3039 45.56 26.1792 46.3163C28.0544 47.0727 29.9818 47.4758 31.9612 47.5258L28.9921 50.495L32.2738 53.7767ZM45.1661 40.4936C46.0517 39.1914 46.7028 37.811 47.1195 36.3525C47.5362 34.8939 47.7446 33.4094 47.7446 31.8987C47.7446 29.9193 47.3664 27.9524 46.6101 25.9979C45.8537 24.0435 44.7213 22.312 43.2127 20.8035C41.7042 19.295 39.9977 18.175 38.0933 17.4437C36.1889 16.7123 34.249 16.3477 32.2738 16.3498L35.2429 13.3025L31.9612 10.0208L23.0538 18.8501L31.9612 27.6794L35.2429 24.3977L31.805 20.9598C33.2114 20.9598 34.6439 21.2338 36.1024 21.7818C37.5609 22.3297 38.8111 23.1236 39.8529 24.1633C40.8947 25.203 41.6896 26.4011 42.2376 27.7576C42.7856 29.114 43.0586 30.4683 43.0565 31.8206C43.0565 32.7061 42.9398 33.5917 42.7064 34.4772C42.4731 35.3628 42.147 36.2222 41.7282 37.0557L45.1661 40.4936ZM32.1175 63.153C27.794 63.153 23.731 62.332 19.9284 60.6901C16.1258 59.0482 12.818 56.8219 10.0051 54.0111C7.19226 51.2003 4.96592 47.8926 3.32612 44.0879C1.68631 40.2832 0.865369 36.2202 0.863285 31.8987C0.861202 27.5773 1.68215 23.5143 3.32612 19.7096C4.97009 15.9049 7.19643 12.5972 10.0051 9.78639C12.8139 6.97559 16.1216 4.74925 19.9284 3.10736C23.7351 1.46548 27.7982 0.644531 32.1175 0.644531C36.4368 0.644531 40.4999 1.46548 44.3066 3.10736C48.1134 4.74925 51.4211 6.97559 54.2299 9.78639C57.0386 12.5972 59.2659 15.9049 60.912 19.7096C62.5581 23.5143 63.378 27.5773 63.3717 31.8987C63.3655 36.2202 62.5445 40.2832 60.9089 44.0879C59.2732 47.8926 57.0469 51.2003 54.2299 54.0111C51.4128 56.8219 48.1051 59.0493 44.3066 60.6932C40.5082 62.3372 36.4452 63.1571 32.1175 63.153Z" fill="white"/>
</svg>
